<?xml version="1.0" encoding="utf-8"?>
<!-- Generator: Adobe Illustrator 26.0.3, SVG Export Plug-In . SVG Version: 6.00 Build 0)  -->
<svg version="1.1" id="Layer_1" xmlns="http://www.w3.org/2000/svg" xmlns:xlink="http://www.w3.org/1999/xlink" x="0px" y="0px"
	 viewBox="0 0 91.052 91.21" enable-background="new 0 0 91.052 91.21" xml:space="preserve">
<g>
	<path fill="#221E1F" d="M45.447,0C21.492,0,1.865,18.472,0,41.947l24.443,10.106c2.071-1.416,4.573-2.245,7.265-2.245
		c0.242,0,0.481,0.007,0.72,0.02l10.87-15.756c0-0.075-0.002-0.148-0.002-0.222c0-9.483,7.715-17.199,17.199-17.199
		c9.483,0,17.198,7.716,17.198,17.199c0,9.483-7.715,17.2-17.198,17.2c-0.131,0-0.261-0.003-0.39-0.007L44.602,62.106
		c0.008,0.203,0.015,0.407,0.015,0.611c0,7.119-5.791,12.91-12.909,12.91c-6.248,0-11.473-4.461-12.657-10.366L1.571,58.033
		C6.983,77.176,24.57,91.21,45.447,91.21c25.187,0,45.605-20.419,45.605-45.605C91.052,20.418,70.634,0,45.447,0z"/>
	<path fill="#221E1F" d="M28.579,69.198l-5.602-2.314c0.993,2.067,2.71,3.797,4.991,4.748c4.929,2.054,10.613-0.286,12.668-5.218
		c0.994-2.387,1.001-5.02,0.015-7.413c-0.985-2.392-2.843-4.259-5.231-5.255c-2.37-0.986-4.909-0.95-7.141-0.108l5.788,2.392
		c3.636,1.516,5.355,5.691,3.84,9.327C36.392,68.994,32.215,70.714,28.579,69.198z"/>
	<path fill="#221E1F" d="M71.955,33.85c0-6.319-5.141-11.461-11.46-11.461S49.035,27.532,49.035,33.85s5.142,11.459,11.461,11.459
		S71.955,40.169,71.955,33.85z M51.905,33.831c0-4.755,3.855-8.608,8.609-8.608c4.755,0,8.609,3.853,8.609,8.608
		c0,4.755-3.854,8.608-8.609,8.608C55.761,42.439,51.905,38.585,51.905,33.831z"/>
</g>
</svg>
