<?xml version="1.0" encoding="utf-8"?>
<!-- Generator: Adobe Illustrator 26.0.3, SVG Export Plug-In . SVG Version: 6.00 Build 0)  -->
<svg version="1.1" id="레이어_1" xmlns="http://www.w3.org/2000/svg" xmlns:xlink="http://www.w3.org/1999/xlink" x="0px"
	 y="0px" viewBox="0 0 299.808 299.999" enable-background="new 0 0 299.808 299.999" xml:space="preserve">
<g transform="matrix(1.28755 0 0 1.28755 129.903 50)">
	
		<linearGradient id="SVGID_1_" gradientUnits="userSpaceOnUse" x1="-183.3447" y1="217.4052" x2="-182.3447" y2="217.4052" gradientTransform="matrix(0 299.9991 299.9991 0 -65205.7734 54964.4297)">
		<stop  offset="0" style="stop-color:#111D2E"/>
		<stop  offset="0.21" style="stop-color:#051839"/>
		<stop  offset="0.41" style="stop-color:#0A1B48"/>
		<stop  offset="0.58" style="stop-color:#132E62"/>
		<stop  offset="0.74" style="stop-color:#144B7E"/>
		<stop  offset="0.87" style="stop-color:#136497"/>
		<stop  offset="1" style="stop-color:#1387B8"/>
	</linearGradient>
	<path fill="url(#SVGID_1_)" d="M-96.15,111.177c14.393,48.01,58.916,82.99,111.61,82.99c64.34,0,116.5-52.16,116.5-116.5
		c0-64.341-52.16-116.5-116.5-116.5c-61.741,0-112.26,48.029-116.25,108.76c7.539,12.66,10.481,20.49,4.641,41.25L-96.15,111.177z"
		/>
	<path fill="#FFFFFF" d="M9.459,48.489c0,0.196,0,0.392,0.01,0.576l-28.508,41.412c-4.618-0.21-9.252,0.6-13.646,2.41
		c-1.937,0.79-3.752,1.76-5.455,2.88l-62.599-25.77c0,0-1.448,23.83,4.588,41.59l44.254,18.26c2.222,9.93,9.034,18.64,19.084,22.83
		c16.443,6.87,35.402-0.96,42.242-17.41c1.78-4.3,2.61-8.81,2.49-13.31l40.79-29.15c0.33,0.01,0.67,0.02,1,0.02
		c24.41,0,44.25-19.9,44.25-44.338c0-24.44-19.84-44.322-44.25-44.322C29.309,4.167,9.459,24.049,9.459,48.489z M2.619,132.407
		c-5.294,12.71-19.9,18.74-32.596,13.45c-5.857-2.44-10.279-6.91-12.83-12.24l14.405,5.97c9.363,3.9,20.105-0.54,23.997-9.9
		c3.904-9.37-0.525-20.13-9.883-24.03l-14.891-6.17c5.746-2.18,12.278-2.26,18.381,0.28c6.153,2.56,10.927,7.38,13.457,13.54
		C5.189,119.467,5.179,126.267,2.619,132.407 M53.709,78.027c-16.25,0-29.48-13.25-29.48-29.538c0-16.275,13.23-29.529,29.48-29.529
		c16.26,0,29.49,13.254,29.49,29.529C83.199,64.777,69.969,78.027,53.709,78.027 M31.619,48.444c0-12.253,9.92-22.191,22.14-22.191
		c12.23,0,22.15,9.938,22.15,22.191c0,12.254-9.92,22.183-22.15,22.183C41.539,70.627,31.619,60.698,31.619,48.444z"/>
</g>
</svg>
