<svg xmlns="http://www.w3.org/2000/svg" viewBox="0 0 299.808 299.999">
<path fill="#f5f5f5" d="M299.808,150c0,82.841-67.159,150-150,150C82.185,300,25.018,255.254,6.293,193.752l56.79,23.432
	c2.861,12.785,11.632,24,24.572,29.395c21.171,8.845,45.582-1.236,54.389-22.416c2.292-5.536,3.36-11.343,3.206-17.137
	l52.519-37.532c0.425,0.013,0.863,0.026,1.288,0.026c31.429,0,56.974-25.622,56.974-57.087c0-31.468-25.545-57.067-56.974-57.067
	c-31.416,0-56.974,25.599-56.974,57.067c0,0.252,0,0.505,0.013,0.742l-36.705,53.32c-5.946-0.27-11.912,0.773-17.57,3.103
	c-2.494,1.017-4.831,2.266-7.024,3.708l-80.599-33.18c0,0-0.001,0.016-0.001,0.019c-0.022-0.037-0.043-0.073-0.065-0.109
	C5.268,61.84,70.314,0.001,149.809,0.001C232.649,0.001,299.808,67.158,299.808,150z M93.334,229.725l-18.547-7.687
	c3.285,6.863,8.978,12.618,16.519,15.76c16.347,6.811,35.153-0.953,41.969-17.318c3.296-7.906,3.309-16.661,0.052-24.592
	c-3.258-7.931-9.404-14.137-17.327-17.433c-7.858-3.27-16.268-3.167-23.667-0.36l19.173,7.944
	c12.049,5.021,17.751,18.875,12.725,30.94C119.22,229.03,105.389,234.747,93.334,229.725z M199.056,150.464
	c-20.923,0-37.957-17.06-37.957-38.032c0-20.955,17.034-38.02,37.957-38.02c20.936,0,37.97,17.065,37.97,38.02
	C237.026,133.404,219.992,150.464,199.056,150.464z M199.12,140.936c15.747,0,28.519-12.784,28.519-28.562
	c0-15.776-12.773-28.572-28.519-28.572c-15.734,0-28.506,12.796-28.506,28.572C170.614,128.152,183.387,140.936,199.12,140.936z"/>
</svg>
