<?xml version="1.0" encoding="utf-8"?>
<!-- Generator: Adobe Illustrator 26.0.3, SVG Export Plug-In . SVG Version: 6.00 Build 0)  -->
<svg version="1.1" id="레이어_1" xmlns:serif="http://www.serif.com/"
	 xmlns="http://www.w3.org/2000/svg" xmlns:xlink="http://www.w3.org/1999/xlink" x="0px" y="0px" viewBox="0 0 269.999 269.999"
	 enable-background="new 0 0 269.999 269.999" xml:space="preserve">
<g id="icon" transform="matrix(1.04895,0,0,1.04895,38.4615,44.7552)">
	<g transform="matrix(1.00704,0,0,1.00704,-13.169,30.1761)">
		<circle fill-rule="evenodd" clip-rule="evenodd" fill="#EA5220" cx="104.467" cy="55.466" r="127.8"/>
	</g>
	<g>
		<g transform="matrix(0.986042,0,0,0.986042,0.428741,-1.92393)">
			<circle fill-rule="evenodd" clip-rule="evenodd" fill="#FFFFFF" cx="36.431" cy="45.061" r="22.5"/>
		</g>
		<g transform="matrix(0.986042,0,0,0.986042,62.2981,-1.92393)">
			<circle fill-rule="evenodd" clip-rule="evenodd" fill="#FFFFFF" cx="30.156" cy="45.061" r="22.5"/>
		</g>
		<g transform="matrix(0.986042,0,0,0.986042,62.2981,59.9454)">
			<circle fill-rule="evenodd" clip-rule="evenodd" fill="#FFFFFF" cx="30.156" cy="38.786" r="22.5"/>
		</g>
		<g transform="matrix(0.986042,0,0,0.986042,62.2981,121.815)">
			<circle fill-rule="evenodd" clip-rule="evenodd" fill="#FFFFFF" cx="30.156" cy="32.512" r="22.5"/>
		</g>
		<g transform="matrix(0.986042,0,0,0.986042,124.167,-1.92393)">
			<circle fill-rule="evenodd" clip-rule="evenodd" fill="#FFFFFF" cx="23.882" cy="45.061" r="22.5"/>
		</g>
	</g>
</g>
</svg>
