<svg xmlns="http://www.w3.org/2000/svg" viewBox="0 0 269.999 269.999">
<path fill-rule="evenodd" clip-rule="evenodd" fill="#f5f5f5" d="M135,0C60.442,0,0,60.441,0,134.999s60.441,135,135,135
	s135-60.441,135-135S209.558,0,135,0z M76.592,112.616c-12.853,0-23.272-10.419-23.272-23.272s10.419-23.272,23.272-23.272
	c12.853,0,23.272,10.419,23.272,23.272S89.445,112.616,76.592,112.616z M135,229.432c-12.853,0-23.272-10.419-23.272-23.272
	s10.419-23.272,23.272-23.272s23.272,10.419,23.272,23.272S147.852,229.432,135,229.432z M135,171.024
	c-12.853,0-23.272-10.419-23.272-23.272S122.147,124.48,135,124.48s23.272,10.419,23.272,23.272S147.852,171.024,135,171.024z
	 M135,112.616c-12.853,0-23.272-10.419-23.272-23.272S122.147,66.072,135,66.072s23.272,10.419,23.272,23.272
	S147.852,112.616,135,112.616z M193.408,112.616c-12.853,0-23.272-10.419-23.272-23.272s10.419-23.272,23.272-23.272
	s23.272,10.419,23.272,23.272S206.261,112.616,193.408,112.616z"/>
</svg>
